<svg xmlns="http://www.w3.org/2000/svg" xmlns:xlink="http://www.w3.org/1999/xlink" width="178" zoomAndPan="magnify" viewBox="0 0 133.5 44.999999" height="60" preserveAspectRatio="xMidYMid meet" version="1.0"><defs><g/><clipPath id="25040fd4bb"><path d="M 1.339844 5.128906 L 57 5.128906 L 57 38.753906 L 1.339844 38.753906 Z M 1.339844 5.128906 " clip-rule="nonzero"/></clipPath></defs><g clip-path="url(#25040fd4bb)"><path fill="#ffffff" d="M 56.921875 29.832031 C 56.800781 29.285156 56.550781 28.765625 56.175781 28.351562 L 56.035156 28.199219 C 56.007812 28.171875 55.992188 28.160156 55.972656 28.136719 L 55.914062 28.078125 L 55.679688 27.847656 L 55.207031 27.386719 L 54.265625 26.464844 L 52.382812 24.617188 L 48.621094 20.921875 L 33.5625 6.144531 C 33.480469 6.066406 33.410156 5.992188 33.308594 5.90625 C 33.261719 5.863281 33.214844 5.820312 33.167969 5.78125 L 33.011719 5.667969 L 32.9375 5.613281 L 32.855469 5.566406 L 32.691406 5.46875 C 32.632812 5.441406 32.574219 5.417969 32.519531 5.390625 C 32.460938 5.363281 32.402344 5.335938 32.34375 5.320312 L 32.164062 5.257812 C 32.105469 5.238281 32.042969 5.226562 31.980469 5.210938 C 31.859375 5.179688 31.734375 5.167969 31.609375 5.148438 C 31.359375 5.128906 31.105469 5.128906 30.859375 5.171875 C 30.359375 5.246094 29.886719 5.457031 29.492188 5.765625 C 29.46875 5.78125 29.441406 5.800781 29.417969 5.820312 L 29.347656 5.882812 L 29.210938 6.011719 L 28.980469 6.246094 L 28.515625 6.71875 L 24.824219 10.480469 L 17.433594 18.011719 L 2.65625 33.070312 L 17.714844 18.292969 L 25.242188 10.902344 L 29.007812 7.207031 L 29.710938 6.515625 L 29.820312 6.421875 L 29.871094 6.375 C 29.890625 6.359375 29.910156 6.347656 29.929688 6.332031 C 30.234375 6.105469 30.589844 5.953125 30.964844 5.90625 C 31.152344 5.875 31.34375 5.882812 31.527344 5.902344 C 31.621094 5.917969 31.714844 5.925781 31.804688 5.953125 C 31.851562 5.964844 31.898438 5.972656 31.941406 5.988281 L 32.074219 6.035156 C 32.117188 6.050781 32.160156 6.074219 32.203125 6.09375 C 32.242188 6.113281 32.285156 6.132812 32.328125 6.152344 L 32.449219 6.226562 L 32.507812 6.261719 L 32.5625 6.304688 L 32.675781 6.390625 C 32.710938 6.417969 32.742188 6.453125 32.777344 6.484375 C 32.84375 6.539062 32.925781 6.625 33 6.703125 L 47.78125 21.761719 L 51.472656 25.527344 L 53.320312 27.40625 L 54.246094 28.347656 L 54.707031 28.820312 L 54.9375 29.054688 L 54.996094 29.113281 C 55.011719 29.132812 55.039062 29.15625 55.046875 29.167969 L 55.128906 29.261719 C 55.34375 29.503906 55.476562 29.804688 55.542969 30.117188 C 55.566406 30.277344 55.585938 30.4375 55.570312 30.597656 C 55.566406 30.753906 55.527344 30.914062 55.484375 31.066406 C 55.453125 31.136719 55.433594 31.214844 55.394531 31.285156 C 55.375 31.320312 55.363281 31.355469 55.34375 31.390625 L 55.28125 31.492188 C 55.261719 31.527344 55.238281 31.558594 55.214844 31.589844 L 55.140625 31.683594 L 55.058594 31.773438 L 55.019531 31.816406 C 55.015625 31.824219 55.007812 31.832031 54.996094 31.839844 L 54.964844 31.871094 L 54.023438 32.792969 L 50.5625 36.191406 C 50.371094 35.847656 50.183594 35.503906 50 35.15625 C 48.507812 32.378906 47.097656 29.550781 45.703125 26.714844 C 44.316406 23.875 42.945312 21.027344 41.585938 18.171875 L 40.566406 16.023438 C 40.34375 15.566406 40.007812 15.15625 39.601562 14.839844 C 39.195312 14.527344 38.71875 14.304688 38.214844 14.203125 C 37.710938 14.09375 37.179688 14.117188 36.683594 14.246094 C 36.558594 14.28125 36.433594 14.316406 36.316406 14.367188 L 36.136719 14.441406 C 36.078125 14.46875 36.023438 14.5 35.964844 14.53125 L 35.796875 14.621094 L 35.667969 14.699219 L 35.414062 14.851562 L 33.382812 16.082031 C 27.976562 19.371094 22.59375 22.707031 17.246094 26.097656 C 11.902344 29.492188 6.582031 32.925781 1.339844 36.496094 C 6.921875 33.488281 12.417969 30.34375 17.890625 27.160156 C 23.359375 23.96875 28.796875 20.722656 34.207031 17.433594 L 36.230469 16.199219 L 36.484375 16.042969 L 36.609375 15.964844 L 36.703125 15.917969 C 36.734375 15.902344 36.765625 15.882812 36.796875 15.867188 L 36.890625 15.832031 C 36.953125 15.800781 37.019531 15.785156 37.085938 15.765625 C 37.351562 15.695312 37.632812 15.679688 37.90625 15.734375 C 38.453125 15.84375 38.9375 16.203125 39.1875 16.703125 L 39.707031 17.765625 L 40.234375 18.828125 C 40.945312 20.246094 41.652344 21.664062 42.382812 23.074219 L 43.480469 25.183594 L 44.597656 27.28125 C 46.101562 30.074219 47.648438 32.847656 49.328125 35.546875 C 49.75 36.222656 50.179688 36.890625 50.625 37.550781 C 51.070312 38.210938 51.523438 38.867188 52.027344 39.492188 C 52.277344 39.804688 52.535156 40.113281 52.820312 40.402344 C 52.960938 40.546875 53.109375 40.6875 53.277344 40.8125 C 53.359375 40.878906 53.445312 40.9375 53.542969 40.988281 C 53.640625 41.039062 53.746094 41.085938 53.878906 41.09375 C 53.945312 41.09375 54.015625 41.085938 54.078125 41.054688 C 54.140625 41.023438 54.191406 40.976562 54.226562 40.925781 C 54.300781 40.824219 54.332031 40.71875 54.355469 40.613281 C 54.398438 40.40625 54.398438 40.203125 54.390625 40.003906 C 54.375 39.601562 54.316406 39.210938 54.246094 38.820312 C 54.269531 39.214844 54.289062 39.609375 54.269531 40.003906 C 54.253906 40.195312 54.234375 40.390625 54.179688 40.566406 C 54.152344 40.65625 54.113281 40.738281 54.0625 40.792969 C 54.015625 40.851562 53.960938 40.863281 53.894531 40.855469 C 53.828125 40.84375 53.75 40.808594 53.675781 40.761719 C 53.601562 40.714844 53.53125 40.652344 53.460938 40.589844 C 53.324219 40.464844 53.195312 40.320312 53.070312 40.171875 C 52.824219 39.875 52.597656 39.554688 52.378906 39.230469 C 52.023438 38.691406 51.683594 38.140625 51.351562 37.582031 L 51.378906 37.609375 L 55.074219 33.84375 L 56 32.902344 L 56.027344 32.875 C 56.035156 32.863281 56.046875 32.855469 56.058594 32.839844 L 56.269531 32.605469 L 56.394531 32.433594 C 56.433594 32.375 56.476562 32.320312 56.507812 32.257812 L 56.613281 32.074219 C 56.648438 32.011719 56.675781 31.949219 56.707031 31.882812 C 56.769531 31.757812 56.808594 31.621094 56.855469 31.492188 C 56.933594 31.222656 56.984375 30.945312 56.992188 30.664062 C 57.007812 30.382812 56.976562 30.105469 56.921875 29.832031 " fill-opacity="1" fill-rule="nonzero"/></g><path fill="#25d366" d="M 22.375 18.320312 L 24.074219 20.019531 C 24.074219 20.019531 23.660156 19.066406 24.3125 18.414062 C 24.3125 18.414062 24.320312 19.71875 25.589844 19.945312 C 26.863281 20.171875 27.503906 17.765625 27.117188 15.277344 C 24.628906 14.890625 22.222656 15.53125 22.449219 16.800781 C 22.675781 18.074219 23.976562 18.082031 23.976562 18.082031 C 23.324219 18.734375 22.375 18.320312 22.375 18.320312 " fill-opacity="1" fill-rule="nonzero"/><path fill="#25d366" d="M 29.109375 12.832031 L 28.679688 12.398438 L 30.453125 11.511719 L 29.554688 13.269531 C 29.359375 13.078125 29.210938 12.933594 29.109375 12.832031 Z M 30.316406 13.890625 C 31.105469 12.261719 31.652344 11.160156 31.960938 10.582031 L 31.789062 10.410156 C 30.464844 11.070312 29.460938 11.566406 28.777344 11.894531 C 27.695312 12.414062 27.070312 12.707031 26.894531 12.769531 C 26.804688 12.800781 26.730469 12.816406 26.667969 12.8125 C 26.570312 12.808594 26.441406 12.761719 26.277344 12.664062 L 26.066406 12.875 C 26.273438 13.039062 26.464844 13.210938 26.644531 13.390625 C 26.808594 13.554688 26.972656 13.742188 27.136719 13.941406 L 27.34375 13.734375 C 27.207031 13.507812 27.136719 13.371094 27.136719 13.324219 C 27.136719 13.28125 27.15625 13.234375 27.203125 13.191406 C 27.25 13.144531 27.601562 12.953125 28.257812 12.621094 C 28.523438 12.875 28.710938 13.054688 28.824219 13.167969 C 28.957031 13.304688 29.125 13.476562 29.324219 13.683594 C 29.050781 14.207031 28.890625 14.519531 28.832031 14.621094 C 28.808594 14.664062 28.78125 14.699219 28.757812 14.726562 C 28.710938 14.773438 28.660156 14.792969 28.605469 14.792969 C 28.554688 14.792969 28.417969 14.726562 28.203125 14.589844 L 27.992188 14.800781 C 28.339844 15.105469 28.621094 15.363281 28.835938 15.582031 C 29.054688 15.800781 29.28125 16.050781 29.519531 16.324219 L 29.726562 16.117188 C 29.613281 15.890625 29.554688 15.75 29.550781 15.691406 C 29.546875 15.632812 29.558594 15.554688 29.589844 15.460938 C 29.636719 15.320312 29.878906 14.800781 30.316406 13.890625 " fill-opacity="1" fill-rule="nonzero"/><path fill="#ffffff" d="M 24.984375 27.277344 L 25.558594 28.246094 L 26.132812 29.210938 C 26.132812 29.210938 26.378906 28.402344 27.097656 27.6875 C 27.0625 27.777344 27.042969 27.867188 27.046875 27.957031 C 27.054688 28.660156 27.632812 29.226562 28.335938 29.214844 C 29.035156 29.207031 29.597656 28.628906 29.589844 27.925781 C 29.589844 27.652344 29.390625 27.355469 29.152344 27.097656 C 29.496094 27.164062 29.847656 27.179688 30.082031 27.039062 C 30.6875 26.679688 30.886719 25.898438 30.53125 25.292969 C 30.171875 24.6875 29.390625 24.492188 28.785156 24.851562 C 28.542969 24.992188 28.382812 25.324219 28.277344 25.671875 C 28.164062 25.328125 27.996094 25.003906 27.753906 24.867188 C 27.136719 24.523438 26.359375 24.742188 26.015625 25.351562 C 25.671875 25.964844 25.890625 26.742188 26.507812 27.085938 C 26.578125 27.128906 26.664062 27.15625 26.753906 27.167969 C 25.796875 27.445312 24.984375 27.277344 24.984375 27.277344 " fill-opacity="1" fill-rule="nonzero"/><path fill="#ffffff" d="M 32.871094 22.769531 L 34.90625 22.328125 L 33.53125 23.882812 C 33.382812 23.640625 33.269531 23.453125 33.191406 23.320312 Z M 33 26.121094 C 33.085938 25.992188 33.464844 25.523438 34.148438 24.714844 C 35.371094 23.261719 36.214844 22.28125 36.679688 21.773438 L 36.546875 21.550781 C 35.03125 21.882812 33.878906 22.125 33.097656 22.28125 C 31.863281 22.53125 31.148438 22.664062 30.957031 22.683594 C 30.855469 22.691406 30.777344 22.6875 30.710938 22.667969 C 30.617188 22.640625 30.496094 22.558594 30.351562 22.417969 L 30.085938 22.578125 C 30.253906 22.796875 30.402344 23.023438 30.539062 23.25 C 30.664062 23.460938 30.785156 23.691406 30.894531 23.941406 L 31.164062 23.78125 C 31.082031 23.515625 31.046875 23.359375 31.058594 23.3125 C 31.070312 23.265625 31.101562 23.226562 31.160156 23.191406 C 31.21875 23.15625 31.628906 23.054688 32.382812 22.886719 C 32.585938 23.214844 32.730469 23.449219 32.816406 23.589844 C 32.917969 23.761719 33.042969 23.980469 33.1875 24.246094 C 32.777344 24.707031 32.53125 24.984375 32.449219 25.074219 C 32.410156 25.109375 32.375 25.140625 32.34375 25.160156 C 32.285156 25.191406 32.226562 25.203125 32.171875 25.1875 C 32.117188 25.171875 32 25.070312 31.8125 24.878906 L 31.546875 25.035156 C 31.820312 25.4375 32.039062 25.773438 32.203125 26.050781 C 32.367188 26.332031 32.535156 26.640625 32.703125 26.984375 L 32.96875 26.824219 C 32.914062 26.566406 32.890625 26.40625 32.898438 26.347656 C 32.910156 26.285156 32.945312 26.210938 33 26.121094 " fill-opacity="1" fill-rule="nonzero"/><g fill="#25d366" fill-opacity="1"><g transform="translate(57.307587, 26.6409)"><g><path d="M 6.3125 -1.59375 L 2.84375 -1.59375 L 2.203125 0 L -0.15625 0 L 3.453125 -8.1875 L 5.734375 -8.1875 L 9.359375 0 L 6.953125 0 Z M 5.625 -3.296875 L 4.578125 -5.921875 L 3.515625 -3.296875 Z M 5.625 -3.296875 "/></g></g></g><g fill="#25d366" fill-opacity="1"><g transform="translate(65.620772, 26.6409)"><g><path d="M 4.90625 0.15625 C 4.039062 0.15625 3.265625 -0.0195312 2.578125 -0.375 C 1.898438 -0.738281 1.363281 -1.242188 0.96875 -1.890625 C 0.582031 -2.546875 0.390625 -3.28125 0.390625 -4.09375 C 0.390625 -4.914062 0.582031 -5.648438 0.96875 -6.296875 C 1.363281 -6.941406 1.898438 -7.445312 2.578125 -7.8125 C 3.265625 -8.175781 4.039062 -8.359375 4.90625 -8.359375 C 5.65625 -8.359375 6.328125 -8.222656 6.921875 -7.953125 C 7.523438 -7.691406 8.023438 -7.3125 8.421875 -6.8125 L 6.953125 -5.484375 C 6.421875 -6.117188 5.773438 -6.4375 5.015625 -6.4375 C 4.578125 -6.4375 4.179688 -6.335938 3.828125 -6.140625 C 3.484375 -5.941406 3.210938 -5.664062 3.015625 -5.3125 C 2.828125 -4.957031 2.734375 -4.550781 2.734375 -4.09375 C 2.734375 -3.632812 2.828125 -3.226562 3.015625 -2.875 C 3.210938 -2.519531 3.484375 -2.242188 3.828125 -2.046875 C 4.179688 -1.847656 4.578125 -1.75 5.015625 -1.75 C 5.773438 -1.75 6.421875 -2.070312 6.953125 -2.71875 L 8.421875 -1.375 C 8.023438 -0.875 7.523438 -0.492188 6.921875 -0.234375 C 6.328125 0.0234375 5.65625 0.15625 4.90625 0.15625 Z M 4.90625 0.15625 "/></g></g></g><g fill="#25d366" fill-opacity="1"><g transform="translate(73.371924, 26.6409)"><g><path d="M 7.390625 -1.796875 L 7.390625 0 L 0.8125 0 L 0.8125 -8.1875 L 7.25 -8.1875 L 7.25 -6.40625 L 3.109375 -6.40625 L 3.109375 -5.015625 L 6.75 -5.015625 L 6.75 -3.28125 L 3.109375 -3.28125 L 3.109375 -1.796875 Z M 7.390625 -1.796875 "/></g></g></g><g fill="#25d366" fill-opacity="1"><g transform="translate(80.350283, 26.6409)"><g/></g></g><g fill="#25d366" fill-opacity="1"><g transform="translate(82.867516, 26.6409)"><g><path d="M 8.21875 0 L 8.1875 -4.34375 L 6.078125 -0.8125 L 5.0625 -0.8125 L 2.953125 -4.21875 L 2.953125 0 L 0.8125 0 L 0.8125 -8.1875 L 2.734375 -8.1875 L 5.609375 -3.46875 L 8.421875 -8.1875 L 10.328125 -8.1875 L 10.34375 0 Z M 8.21875 0 "/></g></g></g><g fill="#25d366" fill-opacity="1"><g transform="translate(93.147809, 26.6409)"><g><path d="M 6.3125 -1.59375 L 2.84375 -1.59375 L 2.203125 0 L -0.15625 0 L 3.453125 -8.1875 L 5.734375 -8.1875 L 9.359375 0 L 6.953125 0 Z M 5.625 -3.296875 L 4.578125 -5.921875 L 3.515625 -3.296875 Z M 5.625 -3.296875 "/></g></g></g><g fill="#25d366" fill-opacity="1"><g transform="translate(101.460996, 26.6409)"><g><path d="M 3.703125 0.15625 C 3.035156 0.15625 2.390625 0.078125 1.765625 -0.078125 C 1.140625 -0.242188 0.632812 -0.460938 0.25 -0.734375 L 1 -2.453125 C 1.375 -2.203125 1.800781 -2.003906 2.28125 -1.859375 C 2.757812 -1.710938 3.234375 -1.640625 3.703125 -1.640625 C 4.597656 -1.640625 5.046875 -1.863281 5.046875 -2.3125 C 5.046875 -2.539062 4.914062 -2.710938 4.65625 -2.828125 C 4.40625 -2.941406 4 -3.0625 3.4375 -3.1875 C 2.820312 -3.3125 2.304688 -3.453125 1.890625 -3.609375 C 1.484375 -3.765625 1.128906 -4.007812 0.828125 -4.34375 C 0.535156 -4.675781 0.390625 -5.128906 0.390625 -5.703125 C 0.390625 -6.203125 0.523438 -6.648438 0.796875 -7.046875 C 1.066406 -7.453125 1.472656 -7.769531 2.015625 -8 C 2.554688 -8.238281 3.222656 -8.359375 4.015625 -8.359375 C 4.554688 -8.359375 5.085938 -8.296875 5.609375 -8.171875 C 6.128906 -8.054688 6.585938 -7.878906 6.984375 -7.640625 L 6.265625 -5.921875 C 5.492188 -6.335938 4.738281 -6.546875 4 -6.546875 C 3.539062 -6.546875 3.207031 -6.476562 3 -6.34375 C 2.789062 -6.207031 2.6875 -6.03125 2.6875 -5.8125 C 2.6875 -5.59375 2.804688 -5.425781 3.046875 -5.3125 C 3.296875 -5.207031 3.703125 -5.097656 4.265625 -4.984375 C 4.890625 -4.847656 5.40625 -4.703125 5.8125 -4.546875 C 6.21875 -4.398438 6.570312 -4.160156 6.875 -3.828125 C 7.175781 -3.492188 7.328125 -3.046875 7.328125 -2.484375 C 7.328125 -1.992188 7.1875 -1.546875 6.90625 -1.140625 C 6.632812 -0.742188 6.226562 -0.425781 5.6875 -0.1875 C 5.144531 0.0390625 4.484375 0.15625 3.703125 0.15625 Z M 3.703125 0.15625 "/></g></g></g><g fill="#25d366" fill-opacity="1"><g transform="translate(108.146634, 26.6409)"><g><path d="M 2.5625 -6.359375 L 0.046875 -6.359375 L 0.046875 -8.1875 L 7.390625 -8.1875 L 7.390625 -6.359375 L 4.875 -6.359375 L 4.875 0 L 2.5625 0 Z M 2.5625 -6.359375 "/></g></g></g><g fill="#25d366" fill-opacity="1"><g transform="translate(114.691764, 26.6409)"><g><path d="M 7.390625 -1.796875 L 7.390625 0 L 0.8125 0 L 0.8125 -8.1875 L 7.25 -8.1875 L 7.25 -6.40625 L 3.109375 -6.40625 L 3.109375 -5.015625 L 6.75 -5.015625 L 6.75 -3.28125 L 3.109375 -3.28125 L 3.109375 -1.796875 Z M 7.390625 -1.796875 "/></g></g></g><g fill="#25d366" fill-opacity="1"><g transform="translate(121.670121, 26.6409)"><g><path d="M 4.40625 -2.171875 L 3.140625 -2.171875 L 3.140625 0 L 0.8125 0 L 0.8125 -8.1875 L 4.5625 -8.1875 C 5.300781 -8.1875 5.941406 -8.0625 6.484375 -7.8125 C 7.035156 -7.570312 7.457031 -7.222656 7.75 -6.765625 C 8.050781 -6.304688 8.203125 -5.769531 8.203125 -5.15625 C 8.203125 -4.5625 8.0625 -4.046875 7.78125 -3.609375 C 7.507812 -3.171875 7.113281 -2.828125 6.59375 -2.578125 L 8.375 0 L 5.890625 0 Z M 5.859375 -5.15625 C 5.859375 -5.539062 5.738281 -5.835938 5.5 -6.046875 C 5.257812 -6.253906 4.898438 -6.359375 4.421875 -6.359375 L 3.140625 -6.359375 L 3.140625 -3.96875 L 4.421875 -3.96875 C 4.898438 -3.96875 5.257812 -4.070312 5.5 -4.28125 C 5.738281 -4.488281 5.859375 -4.78125 5.859375 -5.15625 Z M 5.859375 -5.15625 "/></g></g></g></svg>